<?xml version="1.0" encoding="utf-8"?>
<!-- Generator: Adobe Illustrator 22.0.1, SVG Export Plug-In . SVG Version: 6.00 Build 0)  -->
<svg version="1.1" id="Layer_1" xmlns="http://www.w3.org/2000/svg" xmlns:xlink="http://www.w3.org/1999/xlink" x="0px" y="0px"
	 viewBox="0 0 245.5 283.5" style="enable-background:new 0 0 245.5 283.5;" xml:space="preserve">
<style type="text/css">
	.st0{fill:#FFFFFF;}
	.st1{fill:#040404;}
</style>
<polygon class="st0" points="122.8,0 0,70.9 0,208.6 0,212.6 3.5,214.7 122.8,283.5 242,214.7 245.5,212.6 245.5,208.6 245.5,70.9 
	"/>
<path class="st1" d="M122.8,7.6L6.6,74.7V205v3.8l3.3,1.9l112.9,65.2l112.9-65.2l3.3-1.9V205V74.7L122.8,7.6z M122.8,59.8
	c9.2,0,16.8,7.5,16.8,16.8s-7.5,16.8-16.8,16.8S106,85.9,106,76.6S113.5,59.8,122.8,59.8z M119.5,147.5v118.8L16.5,206.9
	L119.5,147.5z M126.1,266.3V147.5L229,206.9L126.1,266.3z M119.5,17.2v36.3c-11.3,1.6-20.1,11.4-20.1,23.2
	c0,12.9,10.5,23.4,23.4,23.4s23.4-10.5,23.4-23.4c0-11.8-8.7-21.5-20.1-23.2V17.2l106.2,61.3v122.7l-109.6-63.2L13.2,201.2V78.5"/>
</svg>
