<?xml version="1.0" encoding="utf-8"?>
<!-- Generator: Adobe Illustrator 19.0.0, SVG Export Plug-In . SVG Version: 6.00 Build 0)  -->
<svg version="1.1" id="Layer_1" xmlns="http://www.w3.org/2000/svg" xmlns:xlink="http://www.w3.org/1999/xlink" x="0px" y="0px"
	 viewBox="-158 368.3 257.3 64.6" style="enable-background:new -158 368.3 257.3 64.6;" xml:space="preserve">
<style type="text/css">
	.st0{fill:#BDCCB3;}
	.st1{fill:#FFFFFF;}
	.st2{fill:#88A67A;}
	.st3{fill:#366C35;}
	.st4{fill:#6FA651;}
	.st5{fill:#ECECEC;}
	.st6{fill:#CDCCCC;}
	.st7{clip-path:url(#SVGID_2_);fill:#525254;}
	.st8{clip-path:url(#SVGID_4_);fill:#525254;}
	.st9{clip-path:url(#SVGID_6_);fill:#525254;}
	.st10{clip-path:url(#SVGID_8_);fill:#525254;}
	.st11{clip-path:url(#SVGID_10_);fill:#525254;}
	.st12{clip-path:url(#SVGID_12_);fill:#525254;}
	.st13{clip-path:url(#SVGID_14_);fill:#525254;}
	.st14{clip-path:url(#SVGID_16_);fill:#525254;}
	.st15{clip-path:url(#SVGID_18_);fill:#525254;}
	.st16{clip-path:url(#SVGID_20_);fill:#525254;}
	.st17{clip-path:url(#SVGID_22_);fill:#525254;}
	.st18{clip-path:url(#SVGID_24_);fill:#525254;}
	.st19{clip-path:url(#SVGID_26_);fill:#525254;}
	.st20{fill:#3A6C37;}
</style>
<g id="XMLID_57_">
	<path id="XMLID_34_" class="st0" d="M-50.9,430l-6-25.1c-0.4-1.3-0.7-1.9-1.9-2.5l-8.7-4.3c-1.6-0.5-2.1,0.6-2.2,1.2l0.8,29.4
		L-50.9,430z"/>
	<path id="XMLID_33_" class="st1" d="M-51.8,430l-5.8-24.6c-0.3-1.1-0.6-1.6-1.5-2.1l-8.3-4.1c-0.3-0.1-1.1-0.4-1.5-0.2
		c-0.7,0.4-0.5,1.2-0.5,1.4l1.5,28.3c0,0.4-1.6,0.5-1.6,0l-0.8-29.1v-0.1c0.1-0.7,0.5-1.3,1-1.6c0.6-0.4,1.3-0.4,2.2-0.2h0.1
		l8.6,4.2c1.5,0.7,1.9,1.5,2.3,3l6,25.1C-50.9,430.2-50.5,429.9-51.8,430"/>
	<path id="XMLID_32_" class="st2" d="M-93,427.8l7-43.1c0-1.2,1.1-1.4,2-1.1l11.4,6.1c1.1,0.8,1.7,1.6,1.9,2.9l4.4,36.3L-93,427.8z"
		/>
	<path id="XMLID_31_" class="st1" d="M-67.1,428.8l-4.3-36.5c-0.2-1-0.6-1.6-1.5-2.3l-10.8-5.7c-0.5-0.3-1-0.6-1.5-0.4
		c-0.5,0.2-0.6,0.5-0.7,1.1c0,0.2,0,0.9,0,1.1l-0.2,1.3c-0.1,0.5-0.2,1.1-0.2,1.6c-0.1,0.6-0.2,1.3-0.3,1.9l-0.4,2.4
		c-0.1,0.9-0.3,1.7-0.4,2.6c-0.1,0.9-0.3,1.9-0.4,2.8c-0.1,1-0.3,1.9-0.4,2.9s-0.3,2-0.4,3l-0.4,3c-0.1,1-0.3,1.9-0.4,2.9
		s-0.3,1.9-0.4,2.9c-0.1,0.9-0.3,1.9-0.4,2.8s-0.3,1.8-0.4,2.7c-0.1,0.8-0.2,1.6-0.4,2.5l-0.3,2.2l-0.3,1.8
		c-0.1,0.4-0.1,0.9-0.2,1.3c0,0.3-0.1,0.6-0.1,0.9c0,0.2-0.1,0.4-0.1,0.5c0,0.1-1.7,0.4-1.6,0l7-43.1c0-0.7,0.3-1.3,0.8-1.6
		c0.6-0.4,1.5-0.4,2.3-0.1c3.3,1.8,6.6,3.7,9.9,5.5c1.5,0.8,2.7,2,3.1,3.7l4.9,36.7L-67.1,428.8z"/>
	<path id="XMLID_30_" class="st3" d="M-117.2,428.3l9.8-58.2c0.4-0.9,0.9-1.2,2.2-0.9l16.4,3.6c1,0.4,1.5,0.9,1.7,2l4.2,53.3
		L-117.2,428.3z"/>
	<path id="XMLID_29_" class="st1" d="M-83.7,428.3l-3.8-53.7c-0.1-0.8-0.3-1.1-1.1-1.3l-16.3-3.5c-1.3-0.3-1.8,0.6-1.9,1.5
		l-1.6,12.5l-8.9,44.4l-1.5-0.3l8.9-44.4l1.7-13.6c0-0.1,0-0.1,0.1-0.2c0.5-1.3,1.5-1.6,3.1-1.3c2.1,0.4,4.1,0.9,6.2,1.3
		c3.1,0.6,6.3,1.1,9.4,1.7c0.4,0.1,0.7,0.4,1.1,0.6c1,0.5,1.4,1.3,1.6,3.1c0.2,1.6,4.6,53.1,4.6,53.1L-83.7,428.3z"/>
	<path id="XMLID_28_" class="st4" d="M-129.1,428.5c1.9-13.6,4.1-26.2,7.4-40.1c0.3-1,1-1.6,1.8-2l12.7-3.7c1.9-0.4,2,1.1,2,1.1v44
		L-129.1,428.5z"/>
	<path id="XMLID_27_" class="st1" d="M-129.1,429.3L-129.1,429.3c-0.5-0.1-0.8-0.5-0.8-0.9c2.1-15.1,4.4-27.5,7.4-40.2v-0.1
		c0.4-1.1,1.1-1.9,2.2-2.4c0,0,0.1,0,0.1-0.1l12.7-3.7c0.9-0.2,1.7-0.1,2.2,0.3c0.7,0.5,0.8,1.4,0.8,1.5v44c0,0.4-1.6,0.4-1.6,0
		c0,0,0.6-42.7,0.6-43c0-0.2,0.1-1.3-0.6-1.7c-0.8-0.5-1.6-0.1-2.1,0l-11.6,3.9c-0.8,0.3-1.2,1-1.4,1.8c-3,12.7-5.2,25-7.3,40
		C-128.4,429-128.7,429.3-129.1,429.3"/>
	<path id="XMLID_26_" class="st0" d="M-139.5,429.3l3.1-22.7c0.2-1.2,0.4-2,1.7-2.5l11.8-4c1.5-0.3,2.2,0.6,2.1,2.1l-0.8,25.8
		L-139.5,429.3z"/>
	<path id="XMLID_25_" class="st1" d="M-140.3,429.6l3.9-23.3c0.3-1.4,0.8-2.4,2.4-3.1l10.9-3.7h0.1c1.1-0.2,1.8,0.1,2.2,0.5
		c0.4,0.4,0.9,1.1,0.9,2.5l-0.8,26h-1.4l1.1-25.3c0,0,0.2-2-0.7-2.6c-0.7-0.5-1.4-0.3-2.8,0.2c-2.7,0.9-8.7,3.2-8.7,3.2
		c-1.4,0.6-1.7,1.6-1.8,2.7l-3.8,22.6L-140.3,429.6z"/>
	<path id="XMLID_24_" class="st5" d="M-148.1,430.1l2.6-12.1c0-0.1,0.3-1.6,0.6-1.8c0.6-0.5,10-5.4,10-5.4c1.5-0.3,2.2,0.6,2.1,2.1
		l-1,15.6L-148.1,430.1z"/>
	<path id="XMLID_23_" class="st1" d="M-148.7,430.1l2.8-12.6c0.3-1.6,0.9-2.4,2.4-3l8.3-4.4c0.1,0,0.1,0,0.2-0.1
		c1.1-0.2,1.8,0.1,2.2,0.4c0.4,0.4,0.9,1.1,0.9,2.5l-1.3,15.5c-0.8,0.1-0.5,0.1-1.2,0l1.6-15.4c0.1-0.9-0.1-1.4-0.6-1.8
		c-0.4-0.3-1.1-0.6-2.2,0l-7.7,4.4c-1.1,0.6-1.4,1.2-1.6,2.3l-2.6,12C-147.9,430-148.2,430.1-148.7,430.1"/>
	<path id="XMLID_22_" class="st6" d="M-158,431.2c0,0,0.4-0.1,1.3-0.2c0.8-0.1,2.1-0.3,3.7-0.5c1.6-0.2,3.5-0.5,5.7-0.7
		c2.2-0.2,4.7-0.6,7.4-0.8c2.7-0.2,5.7-0.5,8.8-0.8c3.1-0.2,6.4-0.5,9.8-0.6c1.7-0.1,3.4-0.1,5.2-0.2c1.8-0.1,3.5-0.2,5.3-0.2
		c3.6,0,7.2-0.1,10.9-0.1c3.6,0.1,7.3,0.1,10.9,0.2s7.1,0.3,10.5,0.4s6.7,0.4,9.8,0.6c3.1,0.2,6.1,0.5,8.8,0.7
		c2.7,0.2,5.2,0.6,7.4,0.8c2.2,0.3,4.1,0.5,5.7,0.7c1.6,0.2,2.8,0.4,3.7,0.5c0.8,0.1,1.3,0.2,1.3,0.2s-0.5,0-1.3-0.1
		s-2.1-0.2-3.7-0.4c-1.6-0.1-3.5-0.3-5.7-0.5c-2.2-0.1-4.7-0.4-7.4-0.5c-2.7-0.2-5.7-0.4-8.8-0.5c-3.1-0.1-6.4-0.3-9.8-0.4
		c-3.4-0.1-6.9-0.2-10.5-0.3c-3.6,0-7.2-0.1-10.9-0.1c-3.6,0-7.3,0.1-10.8,0.1c-3.6,0.1-7.1,0.2-10.5,0.3c-1.7,0-3.4,0.1-5,0.2
		c-1.6,0.1-3.2,0.1-4.8,0.2c-3.1,0.1-6.1,0.4-8.8,0.5c-2.7,0.2-5.2,0.4-7.4,0.5c-2.2,0.2-4.1,0.4-5.7,0.5c-1.6,0.1-2.8,0.3-3.7,0.3
		C-157.5,431.1-158,431.2-158,431.2"/>
</g>
<g id="XMLID_37_">
	<g>
		<defs>
			<rect id="SVGID_1_" x="-42.8" y="373.1" width="142.1" height="30.3"/>
		</defs>
		<clipPath id="SVGID_2_">
			<use xlink:href="#SVGID_1_"  style="overflow:visible;"/>
		</clipPath>
		<path id="XMLID_19_" class="st7" d="M-31.5,379.3c-2.2,0-3.8,0.8-4.9,2.4s-1.6,4.3-1.6,7.9v0.1c0,3.7,0.5,6.3,1.5,7.9
			c1.1,1.6,2.7,2.4,4.9,2.4c0.8,0,1.5-0.1,2.2-0.3c0.6-0.2,1.8-1,1.8-2v-8.2c0-1.2-0.5-1.8-2-1.8h-2.6c-0.2,0-0.4,0.1-0.4,0.4v2.5
			c0,0.2,0.1,0.4,0.4,0.4h1.1c0.1,0,0.3,0.1,0.3,0.3c0,0,0.1,5.1,0,5.3c-0.1,0.3-0.7,0.4-0.8,0.4c-1-0.1-1.7-0.6-2-1.9
			c-0.4-1.2-0.6-3-0.6-5.3v-0.1c-0.1-2.3,0.1-4.1,0.6-5.3c0.5-1.2,1.5-1.8,3-1.8c0.5,0,1,0.1,1.5,0.1c0.3,0,0.6,0.1,0.8,0.1
			c0.3,0,0.5-0.1,0.5-0.6v-1.8c0-0.3-0.1-0.5-0.2-0.6c-0.4-0.1-0.8-0.3-1.3-0.4C-30.1,379.4-30.7,379.3-31.5,379.3"/>
	</g>
	<g>
		<defs>
			<rect id="SVGID_3_" x="-42.8" y="373.1" width="142.1" height="30.3"/>
		</defs>
		<clipPath id="SVGID_4_">
			<use xlink:href="#SVGID_3_"  style="overflow:visible;"/>
		</clipPath>
		<path id="XMLID_52_" class="st8" d="M-18.8,386.2c0,1.3-0.1,1.6-0.4,2.3c-0.3,0.6-0.8,0.8-1.3,0.8h-0.8c-0.4,0-0.4-0.1-0.5-0.5
			v-5.7c0-0.3,0.1-0.5,0.6-0.5h0.7c0.6,0,1.1,0.2,1.4,0.8C-19,384-18.8,384.9-18.8,386.2 M-21.1,392.5l2.2,6.7
			c0.1,0.4,0.3,0.5,0.6,0.5h2.6c0.6,0,0.5-0.2,0.4-0.6l-2.5-7.4c-0.1-0.2,0-0.4,0.2-0.5c0.6-0.3,1.2-0.8,1.6-1.6
			c0.5-0.8,0.8-1.7,0.8-3.4c0-2.3-0.4-3.9-1.3-5c-0.9-1.1-2.2-1.6-3.8-1.5h-3c-1.4,0-2.3,0.9-2.3,2.5v17.2c0,0.3,0.2,0.5,0.5,0.5
			h2.7c0.4,0,0.4-0.1,0.4-0.5v-6.7c0-0.3,0.1-0.4,0.4-0.4C-21.2,392.1-21.1,392.3-21.1,392.5"/>
	</g>
	<g>
		<defs>
			<rect id="SVGID_5_" x="-42.8" y="373.1" width="142.1" height="30.3"/>
		</defs>
		<clipPath id="SVGID_6_">
			<use xlink:href="#SVGID_5_"  style="overflow:visible;"/>
		</clipPath>
		<path id="XMLID_16_" class="st9" d="M18.5,379.7h-2.4c-0.4,0-0.6,0.1-0.6,0.4v8.3v1.9c0,0.4-0.4,0.4-0.6,0.1c-0.4-1.1-3-8.9-3-8.9
			c-0.4-1.1-0.6-1.8-1.3-1.8h-2c-0.7,0-0.9,0.2-0.9,0.8v18.6c0,0.5,0.1,0.6,0.6,0.6h2.4c0.6,0,0.6-0.2,0.6-0.6V389
			c0-0.4,0.4-0.4,0.5-0.1c0.3,0.9,3.2,9.3,3.2,9.3c0.3,0.8,0.6,1.6,1.2,1.6h2.2c0.6,0,0.7-0.2,0.7-0.8v-18.9
			C19,379.7,18.8,379.7,18.5,379.7"/>
	</g>
	<g>
		<defs>
			<rect id="SVGID_7_" x="-42.8" y="373.1" width="142.1" height="30.3"/>
		</defs>
		<clipPath id="SVGID_8_">
			<use xlink:href="#SVGID_7_"  style="overflow:visible;"/>
		</clipPath>
		<path id="XMLID_15_" class="st10" d="M-5.6,379.7h-5.7c-1.3,0-2.2,1.1-2.2,2.5v15c0.1,1.6,0.7,2.6,2.4,2.6h5.5
			c0.5,0,0.7-0.1,0.7-0.6v-2c0-0.4-0.2-0.6-0.7-0.6h-3.8c-0.4,0-0.5-0.1-0.5-0.6v-4.5c0-0.4,0.1-0.5,0.5-0.5H-6
			c0.6,0,0.7-0.1,0.7-0.6v-1.9c0-0.5-0.1-0.7-0.7-0.7h-3.4c-0.4,0-0.5-0.2-0.5-0.5v-3.9c0-0.4,0.1-0.5,0.6-0.5h3.7
			c0.6,0,0.7-0.1,0.7-0.6v-2C-4.8,379.7-5,379.7-5.6,379.7"/>
	</g>
	<g>
		<defs>
			<rect id="SVGID_9_" x="-42.8" y="373.1" width="142.1" height="30.3"/>
		</defs>
		<clipPath id="SVGID_10_">
			<use xlink:href="#SVGID_9_"  style="overflow:visible;"/>
		</clipPath>
		<path id="XMLID_14_" class="st11" d="M5,379.7h-5.6c-1.3,0-2.2,1.1-2.2,2.5v15c0.1,1.6,0.7,2.6,2.3,2.6H5c0.6,0,0.8-0.1,0.8-0.6
			v-2c0-0.4-0.2-0.6-0.7-0.6H1.3c-0.4,0-0.5-0.1-0.5-0.6v-4.5c0-0.4,0.1-0.5,0.5-0.5h3.4c0.6,0,0.7-0.1,0.7-0.6v-1.9
			c0-0.5-0.1-0.7-0.7-0.7H1.3c-0.4,0-0.5-0.2-0.5-0.5v-3.9c0-0.4,0.1-0.5,0.6-0.5h3.7c0.7,0,0.8-0.1,0.8-0.6v-2
			C5.8,379.7,5.7,379.7,5,379.7"/>
	</g>
	<g>
		<defs>
			<rect id="SVGID_11_" x="-42.8" y="373.1" width="142.1" height="30.3"/>
		</defs>
		<clipPath id="SVGID_12_">
			<use xlink:href="#SVGID_11_"  style="overflow:visible;"/>
		</clipPath>
		<path id="XMLID_13_" class="st12" d="M50.9,379.7c-0.5,0-0.7,0.1-0.7,0.6v2.1c0,0.6,0.2,0.6,0.6,0.6H53c0.5,0,0.6,0.2,0.6,0.6
			v15.5c0,0.5,0.1,0.7,0.6,0.7h2.3c0.6,0,0.7-0.1,0.7-0.7v-15.6c0-0.4,0.1-0.6,0.5-0.6h2.2c0.4,0,0.6-0.1,0.6-0.5v-2.1
			c0-0.4-0.1-0.7-0.7-0.7"/>
	</g>
	<g>
		<defs>
			<rect id="SVGID_13_" x="-42.8" y="373.1" width="142.1" height="30.3"/>
		</defs>
		<clipPath id="SVGID_14_">
			<use xlink:href="#SVGID_13_"  style="overflow:visible;"/>
		</clipPath>
		<path id="XMLID_12_" class="st13" d="M28.2,399.1c0,0.5,0.1,0.7,0.6,0.7h2.4c0.5,0,0.6-0.1,0.6-0.7v-7.6c0-0.4,0.1-0.4,0.5-0.4
			h3.4c0.6,0,0.7-0.1,0.7-0.7v-1.8c0-0.6-0.1-0.7-0.7-0.8h-3.4c-0.4,0-0.5-0.2-0.5-0.5v-3.9c0-0.4,0.1-0.5,0.6-0.5h3.3
			c0.8,0,0.8,0,0.8-0.8v-1.9c-0.1-0.4-0.1-0.6-0.8-0.6h-5.4c-1.5,0-2.1,1.1-2.1,2.5L28.2,399.1L28.2,399.1z"/>
	</g>
	<g>
		<defs>
			<rect id="SVGID_15_" x="-42.8" y="373.1" width="142.1" height="30.3"/>
		</defs>
		<clipPath id="SVGID_16_">
			<use xlink:href="#SVGID_15_"  style="overflow:visible;"/>
		</clipPath>
		<path id="XMLID_11_" class="st14" d="M67.3,400c1.9,0.1,3.3-0.6,4.1-1.9c0.8-1.3,1.2-3.3,1.2-6v-11.7c0-0.7-0.1-0.7-0.7-0.7h-2.2
			c-0.6-0.1-0.7,0.1-0.7,0.8v11.6c0,1.8-0.1,2.7-0.4,3.4c-0.3,0.7-0.7,1.1-1.3,1c-0.6,0.1-1.1-0.3-1.3-1c-0.2-0.7-0.4-1.6-0.4-3.4
			v-11.6c0-0.9-0.3-0.8-0.9-0.8h-1.9c-0.6,0-0.8,0.1-0.8,0.8v11.6c-0.1,2.7,0.4,4.7,1.2,6C64,399.4,65.4,400.1,67.3,400"/>
	</g>
	<g>
		<defs>
			<rect id="SVGID_17_" x="-42.8" y="373.1" width="142.1" height="30.3"/>
		</defs>
		<clipPath id="SVGID_18_">
			<use xlink:href="#SVGID_17_"  style="overflow:visible;"/>
		</clipPath>
		<path id="XMLID_10_" class="st15" d="M94.8,379.7h-5.7c-1.5,0.1-2.1,1.1-2.1,2.5v14.9c0.1,1.6,0.8,2.7,2.3,2.6h5.5
			c0.5,0,0.7-0.1,0.7-0.6v-2c0-0.5-0.2-0.6-0.7-0.6H91c-0.4,0-0.5-0.1-0.5-0.6v-4.4c0-0.4,0.1-0.5,0.5-0.5h3.4
			c0.6,0,0.7-0.1,0.7-0.6v-1.9c0-0.5-0.1-0.7-0.7-0.7H91c-0.4,0-0.5-0.2-0.5-0.5v-3.9c0-0.3,0.1-0.5,0.6-0.5h3.7
			c0.6,0,0.7-0.1,0.7-0.6v-2C95.5,379.7,95.4,379.7,94.8,379.7"/>
	</g>
	<g>
		<defs>
			<rect id="SVGID_19_" x="-42.8" y="373.1" width="142.1" height="30.3"/>
		</defs>
		<clipPath id="SVGID_20_">
			<use xlink:href="#SVGID_19_"  style="overflow:visible;"/>
		</clipPath>
		<path id="XMLID_9_" class="st16" d="M94.8,379.7h-5.7c-1.5,0.1-2.1,1.1-2.1,2.5v14.9c0.1,1.6,0.8,2.7,2.3,2.6h5.5
			c0.5,0,0.7-0.1,0.7-0.6v-2c0-0.5-0.2-0.6-0.7-0.6H91c-0.4,0-0.5-0.1-0.5-0.6v-4.4c0-0.4,0.1-0.5,0.5-0.5h3.4
			c0.6,0,0.7-0.1,0.7-0.6v-1.9c0-0.5-0.1-0.7-0.7-0.7H91c-0.4,0-0.5-0.2-0.5-0.5v-3.9c0-0.3,0.1-0.5,0.6-0.5h3.7
			c0.6,0,0.7-0.1,0.7-0.6v-2C95.5,379.7,95.4,379.7,94.8,379.7"/>
	</g>
	<g>
		<defs>
			<rect id="SVGID_21_" x="-42.8" y="373.1" width="142.1" height="30.3"/>
		</defs>
		<clipPath id="SVGID_22_">
			<use xlink:href="#SVGID_21_"  style="overflow:visible;"/>
		</clipPath>
		<path id="XMLID_8_" class="st17" d="M94.8,379.7h-5.6c-1.5,0.1-2.2,1.1-2.2,2.6v14.9c0.1,1.5,0.8,2.6,2.3,2.6h5.5
			c0.6,0,0.8-0.1,0.8-0.6v-2c0-0.4-0.2-0.6-0.8-0.6H91c-0.4,0-0.5-0.1-0.5-0.6v-4.5c0-0.4,0.1-0.4,0.5-0.4h3.4
			c0.6,0,0.7-0.2,0.7-0.7v-1.9c0-0.5-0.1-0.7-0.7-0.7H91c-0.4,0.1-0.5-0.2-0.5-0.5v-3.9c0-0.3,0.1-0.5,0.6-0.5h3.7
			c0.6,0,0.8-0.1,0.8-0.6v-2C95.6,379.7,95.4,379.7,94.8,379.7"/>
	</g>
	<g>
		<defs>
			<rect id="SVGID_23_" x="-42.8" y="373.1" width="142.1" height="30.3"/>
		</defs>
		<clipPath id="SVGID_24_">
			<use xlink:href="#SVGID_23_"  style="overflow:visible;"/>
		</clipPath>
		<path id="XMLID_40_" class="st18" d="M81.5,386.2c0,1.3-0.1,1.6-0.4,2.2c-0.4,0.6-0.8,0.8-1.4,0.8h-0.8c-0.3,0-0.4-0.1-0.5-0.5
			v-5.6c0-0.3,0.1-0.5,0.6-0.5h0.8c0.6,0,1.1,0.3,1.3,0.8C81.4,384,81.6,384.9,81.5,386.2 M79.3,392.5l2.2,6.8
			c0.1,0.4,0.2,0.5,0.6,0.5h2.6c0.6,0,0.5-0.2,0.4-0.6l-2.5-7.4c-0.1-0.2,0-0.4,0.3-0.5c0.6-0.3,1.1-0.8,1.5-1.6
			c0.5-0.9,0.8-1.7,0.8-3.4c0-2.3-0.4-3.9-1.3-5c-0.8-1.1-2.1-1.5-3.8-1.5h-3c-1.6,0-2.2,1.3-2.2,2.5v17.1c0,0.4,0.1,0.6,0.4,0.6H78
			c0.4,0,0.4-0.1,0.4-0.6v-6.7c0-0.3,0.2-0.4,0.4-0.4C79.1,392.1,79.3,392.4,79.3,392.5"/>
	</g>
	<g>
		<defs>
			<rect id="SVGID_25_" x="-42.8" y="373.1" width="142.1" height="30.3"/>
		</defs>
		<clipPath id="SVGID_26_">
			<use xlink:href="#SVGID_25_"  style="overflow:visible;"/>
		</clipPath>
		<path id="XMLID_5_" class="st19" d="M43.5,400c2,0.1,3.3-0.6,4.1-1.9c0.8-1.3,1.2-3.3,1.2-6v-11.7c-0.1-0.7-0.1-0.7-0.7-0.7h-2.2
			c-0.6,0-0.7,0.1-0.7,0.8v11.6c0,1.8-0.1,2.7-0.4,3.4c-0.3,0.7-0.7,1.1-1.4,1c-0.6,0.1-1.1-0.3-1.3-1c-0.2-0.7-0.4-1.6-0.3-3.4
			v-11.6c-0.1-0.9-0.3-0.8-0.9-0.8H39c-0.6,0-0.8,0.1-0.8,0.8V392c0,2.7,0.4,4.7,1.2,6C40.2,399.4,41.6,400.1,43.5,400"/>
	</g>
</g>
<g id="XMLID_2_">
	<path id="XMLID_20_" class="st20" d="M-36.7,404.2c1.4-0.2,3.3-0.5,5.3-0.5c2.9,0,4.9,0.6,6.1,1.7c1,0.9,1.6,2.4,1.6,4
		c0,2.8-1.7,4.6-4,5.4v0.1c1.6,0.6,2.7,2.1,3.1,4.3c0.7,3,1.2,5,1.6,5.9h-2.9c-0.3-0.6-0.8-2.4-1.4-5.1c-0.6-2.9-1.7-4-4.3-4.2H-34
		v9.2h-2.8v-21H-36.7z M-34,413.9h2.8c2.9,0,4.9-1.6,4.9-4c0-2.8-2-3.9-4.9-3.9c-1.3,0-2.3,0.1-2.8,0.2C-34,406.2-34,413.9-34,413.9
		z"/>
	<path id="XMLID_39_" class="st20" d="M-10,415.3h-8.3v7.6h9.2v2.3h-12V404h11.5v2.3h-8.8v6.7h8.3V415.3z"/>
	<path id="XMLID_42_" class="st20" d="M-7.1,421.9c1.3,0.8,3,1.4,5,1.4c2.8,0,4.5-1.5,4.5-3.6c0-2-1.2-3.1-4-4.3
		c-3.5-1.3-5.7-3-5.7-6c0-3.3,2.8-5.8,6.9-5.8c2.2,0,3.8,0.5,4.7,1l-0.8,2.2c-0.7-0.3-2.1-1-4-1c-2.9,0-4,1.7-4,3.2
		c0,2,1.3,3,4.3,4.2c3.6,1.4,5.4,3.1,5.4,6.2c0,3.2-2.4,6.1-7.5,6.1c-2.1,0-4.3-0.6-5.4-1.4L-7.1,421.9z"/>
	<path id="XMLID_44_" class="st20" d="M10.5,404v21.3H7.7V404H10.5z"/>
	<path id="XMLID_46_" class="st20" d="M14,404.2c1.6-0.2,3.7-0.5,5.9-0.5c3.9,0,6.8,0.9,8.7,2.7c1.8,1.7,3,4.2,3,7.6s-1,6.4-3.1,8.3
		c-2,2-5.3,3.1-9.4,3.1c-2,0-3.6-0.1-5-0.2v-21H14z M16.7,423c0.7,0.1,1.7,0.1,2.8,0.1c5.9,0,9-3.2,9-9c0-5-2.8-8.2-8.7-8.2
		c-1.4,0-2.5,0.1-3.2,0.2V423H16.7z"/>
	<path id="XMLID_49_" class="st20" d="M44.8,415.3h-8.3v7.6h9.2v2.3h-12V404h11.5v2.3h-8.8v6.7h8.3V415.3z"/>
	<path id="XMLID_51_" class="st20" d="M48.1,425.2V404h3l6.8,10.7c1.6,2.5,2.8,4.7,3.8,6.9h0.1c-0.2-2.9-0.3-5.4-0.3-8.8V404h2.5
		v21.3h-2.8l-6.8-10.9c-1.5-2.4-2.9-4.9-3.9-7.2h-0.1c0.1,2.7,0.2,5.2,0.2,8.8v9.1h-2.5V425.2z"/>
	<path id="XMLID_54_" class="st20" d="M82.5,424.5c-1,0.5-3,1-5.7,1c-6,0-10.5-3.8-10.5-10.7c0-6.7,4.5-11.2,11.1-11.2
		c2.7,0,4.3,0.6,5.1,0.9l-0.7,2.2c-1-0.5-2.5-0.9-4.3-0.9c-5,0-8.3,3.2-8.3,8.8c0,5.2,3,8.5,8.2,8.5c1.6,0,3.3-0.3,4.5-0.9
		L82.5,424.5z"/>
	<path id="XMLID_56_" class="st20" d="M95.7,415.3h-8.3v7.6h9.2v2.3h-12V404h11.5v2.3h-8.8v6.7h8.3V415.3z"/>
</g>
</svg>
