<?xml version="1.0" encoding="utf-8"?>
<!-- Generator: Adobe Illustrator 16.0.0, SVG Export Plug-In . SVG Version: 6.00 Build 0)  -->
<!DOCTYPE svg PUBLIC "-//W3C//DTD SVG 1.1//EN" "http://www.w3.org/Graphics/SVG/1.1/DTD/svg11.dtd">
<svg version="1.1" id="Layer_1" xmlns="http://www.w3.org/2000/svg" xmlns:xlink="http://www.w3.org/1999/xlink" x="0px" y="0px"
	 width="100px" height="100px" viewBox="0 0 100 100" enable-background="new 0 0 100 100" xml:space="preserve">
<g>
	<path fill="#000" d="M37.318,90.837H1.875V65.484c0-10.258,0.903-18.352,2.712-24.28c1.808-5.928,5.15-11.246,10.027-15.956
		c4.876-4.708,11.1-8.408,18.668-11.1L40.22,28.78c-7.063,2.355-12.131,5.634-15.199,9.838c-3.07,4.206-4.688,9.797-4.856,16.775
		h17.154V90.837z M96.474,90.837H61.031V65.484c0-10.343,0.902-18.457,2.712-24.343c1.807-5.885,5.171-11.183,10.09-15.893
		c4.92-4.708,11.119-8.408,18.604-11.1l6.938,14.631c-7.063,2.355-12.13,5.634-15.199,9.838c-3.07,4.206-4.688,9.797-4.855,16.775
		h17.153V90.837z"/>
</g>
</svg>
