<?xml version="1.0" encoding="utf-8"?>
<!-- Generator: Adobe Illustrator 16.0.0, SVG Export Plug-In . SVG Version: 6.00 Build 0)  -->
<!DOCTYPE svg PUBLIC "-//W3C//DTD SVG 1.1//EN" "http://www.w3.org/Graphics/SVG/1.1/DTD/svg11.dtd">
<svg version="1.1" id="Layer_1" xmlns="http://www.w3.org/2000/svg" xmlns:xlink="http://www.w3.org/1999/xlink" x="0px" y="0px"
	 width="115px" height="115px" viewBox="0 0 115 115" enable-background="new 0 0 115 115" xml:space="preserve">
<g display="none">
	<path display="inline" fill="#FFFFFF" d="M40.299,90.78h33.928c2.289,0,4.151-1.861,4.151-4.15V29.371
		c0-2.289-1.862-4.15-4.151-4.15H40.299c-2.289,0-4.151,1.862-4.151,4.15V86.63C36.148,88.919,38.01,90.78,40.299,90.78z
		 M76.298,80.349h-38.07V36.991h38.07V80.349z M74.227,88.701H40.299c-1.142,0-2.071-0.929-2.071-2.071v-4.895h38.07v4.895
		C76.298,87.772,75.369,88.701,74.227,88.701z M40.299,27.3h33.928c1.143,0,2.071,0.929,2.071,2.071v6.233h-38.07v-6.233
		C38.228,28.229,39.157,27.3,40.299,27.3z"/>
	<path display="inline" fill="#FFFFFF" d="M57.263,34.685c1.877,0,3.406-1.528,3.406-3.406c0-1.878-1.528-3.406-3.406-3.406
		c-1.878,0-3.406,1.528-3.406,3.406C53.857,33.157,55.385,34.685,57.263,34.685z M57.263,29.259c1.113,0,2.018,0.906,2.018,2.02
		c0,1.114-0.905,2.02-2.018,2.02c-1.114,0-2.02-0.906-2.02-2.02C55.244,30.166,56.149,29.259,57.263,29.259z"/>
	<path display="inline" fill="#FFFFFF" d="M61.977,84.174h-9.428c-0.383,0-0.694,0.311-0.694,0.693c0,0.384,0.311,0.694,0.694,0.694
		h9.428c0.384,0,0.693-0.311,0.693-0.694C62.67,84.484,62.36,84.174,61.977,84.174z"/>
	<path display="inline" fill="#FFFFFF" d="M64.473,84.174c-0.182,0-0.36,0.073-0.49,0.203c-0.128,0.13-0.203,0.308-0.203,0.49
		c0,0.184,0.075,0.361,0.203,0.491c0.13,0.129,0.309,0.203,0.49,0.203c0.183,0,0.36-0.074,0.491-0.203
		c0.128-0.129,0.202-0.308,0.202-0.491c0-0.183-0.074-0.36-0.202-0.49C64.835,84.247,64.655,84.174,64.473,84.174z"/>
</g>
<g>
	<g>
		<path fill="#FFFFFF" d="M57.263,114.749c-31.568,0-57.25-25.682-57.25-57.25S25.695,0.25,57.263,0.25
			c31.569,0,57.25,25.682,57.25,57.25S88.832,114.749,57.263,114.749z M57.263,3.165C27.303,3.165,2.928,27.54,2.928,57.5
			c0,29.96,24.375,54.334,54.335,54.334c29.961,0,54.335-24.374,54.335-54.334C111.599,27.54,87.225,3.165,57.263,3.165z"/>
	</g>
	<path fill="#FFFFFF" d="M57.476,39.367c-4.6,0-8.343,3.744-8.343,8.343c0,4.599,3.744,8.342,8.343,8.342
		c4.6,0,8.343-3.743,8.343-8.342C65.819,43.111,62.076,39.367,57.476,39.367z M57.476,53.669c-3.286,0-5.959-2.673-5.959-5.959
		c0-3.286,2.673-5.959,5.959-5.959c3.286,0,5.959,2.673,5.959,5.959C63.436,50.996,60.762,53.669,57.476,53.669z"/>
	<path fill="#FFFFFF" d="M73.427,31.76c-4.317-4.317-10.057-6.695-16.162-6.695c-6.106,0-11.845,2.378-16.161,6.695
		c-7.989,7.988-8.982,23.017-2.15,32.122l18.312,26.445L75.55,63.92C82.408,54.777,81.416,39.748,73.427,31.76z M73.616,62.526
		L57.265,86.138L40.888,62.489c-6.196-8.262-5.308-21.834,1.902-29.044c3.866-3.866,9.006-5.996,14.475-5.996
		c5.468,0,10.609,2.13,14.476,5.996C78.952,40.655,79.84,54.228,73.616,62.526z"/>
</g>
</svg>
